{"title":"18+ Our Kind Of Traitor 2016 UNCENSORED Movies HDRip XviD New ☻r","uid":15688441,"size":739796432,"categoryP":"video","categoryS":"movies","magnet":"?xt=urn:btih:fc1a29643b649b382a5be101eb576705c9f72511&amp;dn=18%2B+Our+Kind+Of+Traitor+2016+UNCENSORED+Movies+HDRip+XviD+New+%E2%98%BBr&amp;tr=udp%3A%2F%2Ftracker.leechers-paradise.org%3A6969&amp;tr=udp%3A%2F%2Fzer0day.ch%3A1337&amp;tr=udp%3A%2F%2Fopen.demonii.com%3A1337&amp;tr=udp%3A%2F%2Ftracker.coppersurfer.tk%3A6969&amp;tr=udp%3A%2F%2Fexodus.desync.com%3A6969","seeders":13,"leechers":4,"uploader":"basicssom","files":2,"time":1472370028,"description":"----------------------------------------------------------------\r\n18+ Our Kind Of Traitor 2016 UNCENSORED Movies HDRip XviD AAC New Source with Sample ☻rDX☻\r\n\r\nSCREEN SHOTS &amp; POSTER:\r\n  \nhttp://postimage.co.nr/2016/8/call/index.htm  \nhttp://postimage.co.nr/2016/8/call/1.html  \nhttp://postimage.co.nr/2016/8/call/2.html  \nhttp://postimage.co.nr/2016/8/call/3.html  \nhttp://postimage.co.nr/2016/8/call/4.html  \nhttp://postimage.co.nr/2016/8/call/5.html  \nhttp://postimage.co.nr/2016/8/call/6.html  \nhttp://postimage.co.nr/2016/8/call/7.html  \nhttp://postimage.co.nr/2016/8/call/8.html  \nhttp://postimage.co.nr/2016/8/call/9.html  \nhttp://postimage.co.nr/2016/8/call/10.html\r\n\r\nFormat                                   : Matroska\r\nFormat version                           : Version 4 / Version 2\r\nFile size                                : 698 MiB\r\nDuration                                 : 1 h 47 min\r\nOverall bit rate                         : 907 kb/s\r\nMovie name                               : Our Kind Of Traitor 2016 English Movies HDRip XviD AAC New Source ☻rDX☻\r\n\r\nVideo\r\nID                                       : 1\r\nFormat                                   : AVC\r\nFormat/Info                              : Advanced Video Codec\r\nFormat profile                           :   \r\nFormat settings, CABAC                   : Yes\r\nFormat settings, ReFrames                : 5 frames\r\nCodec ID                                 : V_MPEG4/ISO/AVC\r\nDuration                                 : 1 h 47 min\r\nBit rate                                 : 713 kb/s\r\nWidth                                    : 720 pixels\r\nHeight                                   : 400 pixels\r\nDisplay aspect ratio                     : 16:9\r\nFrame rate mode                          : Constant\r\nFrame rate                               : 23.976 (24000/1001) FPS\r\nColor space                              : YUV\r\nChroma subsampling                       : 4:2:0\r\nBit depth                                : 8 bits\r\nScan type                                : Progressive\r\nBits/(Pixel*Frame)                       : 0.103\r\nStream size                              : 536 MiB (77%)\r\nTitle                                    : ☻rDX☻\r\nWriting library                          : XviD\r\n\r\nAudio\r\nID                                       : 2\r\nFormat                                   : AC-3\r\nFormat/Info                              : Audio Coding 3\r\nFormat profile                           : Dolby Digital\r\nMode extension                           : CM (complete main)\r\nFormat settings, Endianness              : Big\r\nCodec ID                                 : A_AC3\r\nDuration                                 : 1 h 47 min\r\nBit rate mode                            : Constant\r\nBit rate                                 : 192 kb/s\r\nChannel(s)                               : 2 channels\r\nChannel positions                        : Front: L R\r\nSampling rate                            : 48.0 kHz\r\nFrame rate                               : 31.250 FPS (1536 spf)\r\nCompression mode                         : Lossy\r\nStream size                              : 148 MiB (21%)\r\nTitle                                    : ☻rDX☻\r\nLanguage                                 : English\r\n\r\nIMDB \nhttp://www.imdb.com/title/tt1995390/","torrent":{"xt":"urn:btih:fc1a29643b649b382a5be101eb576705c9f72511","amp;dn":"18%2B+Our+Kind+Of+Traitor+2016+UNCENSORED+Movies+HDRip+XviD+New+%E2%98%BBr","amp;tr":["udp%3A%2F%2Ftracker.leechers-paradise.org%3A6969","udp%3A%2F%2Fzer0day.ch%3A1337","udp%3A%2F%2Fopen.demonii.com%3A1337","udp%3A%2F%2Ftracker.coppersurfer.tk%3A6969","udp%3A%2F%2Fexodus.desync.com%3A6969"],"infoHash":"fc1a29643b649b382a5be101eb576705c9f72511","infoHashBuffer":{"type":"Buffer","data":[252,26,41,100,59,100,155,56,42,91,225,1,235,87,103,5,201,247,37,17]},"announce":[],"urlList":[]}}